<svg width="28" height="28" viewBox="0 0 28 28" fill="none" xmlns="http://www.w3.org/2000/svg">
<path d="M14 24.5C19.799 24.5 24.5 19.799 24.5 14C24.5 8.20101 19.799 3.5 14 3.5C8.20101 3.5 3.5 8.20101 3.5 14C3.5 19.799 8.20101 24.5 14 24.5Z" stroke="#F7F7F7" stroke-width="1.5" stroke-miterlimit="10"/>
<path d="M4.09766 10.5H23.9016" stroke="#F7F7F7" stroke-width="1.5" stroke-linecap="round" stroke-linejoin="round"/>
<path d="M4.09766 17.5H23.9015" stroke="#F7F7F7" stroke-width="1.5" stroke-linecap="round" stroke-linejoin="round"/>
<path d="M14 24.218C16.4162 24.218 18.375 19.6432 18.375 13.9999C18.375 8.35655 16.4162 3.78174 14 3.78174C11.5838 3.78174 9.625 8.35655 9.625 13.9999C9.625 19.6432 11.5838 24.218 14 24.218Z" stroke="#F7F7F7" stroke-width="1.5" stroke-miterlimit="10"/>
</svg>
